<?xml version="1.0" standalone="no"?>
<!DOCTYPE svg PUBLIC "-//W3C//DTD SVG 20010904//EN"
 "http://www.w3.org/TR/2001/REC-SVG-20010904/DTD/svg10.dtd">
<svg version="1.0" xmlns="http://www.w3.org/2000/svg"
 width="349.000000pt" height="324.000000pt" viewBox="0 0 349.000000 324.000000"
 preserveAspectRatio="xMidYMid meet">

<g transform="translate(0.000000,324.000000) scale(0.100000,-0.100000)"
fill="#000000" stroke="none">
<path d="M1395 3178 c-78 -44 -221 -203 -402 -448 -106 -142 -176 -248 -208
-315 -11 -22 -23 -41 -27 -43 -5 -2 -8 -9 -8 -15 0 -6 -25 -54 -55 -106 -81
-143 -254 -523 -325 -714 -34 -92 -64 -166 -67 -163 -7 7 16 125 43 216 13 47
32 110 40 140 123 424 388 988 586 1247 45 60 44 75 -6 100 -29 13 -39 14 -65
3 -30 -12 -92 -79 -121 -131 -8 -15 -32 -57 -53 -93 -22 -37 -40 -73 -41 -81
-1 -8 -13 -26 -26 -40 -13 -14 -21 -28 -18 -31 4 -3 -28 -76 -69 -162 -193
-405 -336 -821 -375 -1092 -10 -68 -14 -79 -19 -55 -5 21 -7 7 -8 -42 -1 -80
8 -96 69 -128 24 -12 45 -15 85 -10 50 7 54 9 61 39 14 64 108 345 152 451 71
173 82 205 74 205 -4 0 -2 4 4 8 5 4 25 36 43 72 85 165 155 296 167 315 8 11
72 108 143 215 184 277 435 589 457 568 4 -5 0 -35 -9 -68 -10 -33 -17 -68
-17 -77 0 -31 -53 -194 -60 -183 -3 6 -33 -72 -65 -172 -80 -250 -86 -270 -75
-263 4 3 11 19 15 36 4 17 9 29 11 26 2 -2 -5 -39 -15 -83 -22 -87 -58 -261
-66 -315 -2 -19 -14 -77 -25 -129 -12 -52 -25 -122 -30 -155 -5 -33 -16 -80
-25 -105 l-15 -45 5 38 c2 22 0 35 -6 32 -5 -4 -9 -28 -9 -54 0 -46 1 -48 48
-72 26 -14 55 -24 64 -22 10 3 25 27 37 61 56 162 194 457 276 593 60 100 125
189 137 189 12 0 10 -82 -8 -224 -12 -99 -13 -131 -4 -136 9 -6 10 -30 5 -89
-4 -44 -11 -78 -16 -75 -16 10 -9 -11 16 -49 26 -37 64 -62 119 -78 49 -14
118 14 166 68 77 88 43 104 -81 38 -50 -26 -92 -45 -95 -42 -3 2 -6 31 -8 63
-2 33 -5 64 -6 69 -2 6 0 21 3 35 3 14 8 50 11 80 2 30 9 111 16 180 6 69 8
140 5 159 -9 49 -34 83 -55 76 -11 -3 -20 1 -24 10 -10 26 -62 18 -101 -16
-33 -29 -135 -151 -135 -162 0 -2 -17 -31 -39 -63 -21 -33 -56 -92 -76 -131
-21 -40 -42 -73 -47 -73 -11 0 -10 14 2 26 5 5 25 75 44 154 32 134 61 237
191 675 55 187 68 294 40 325 -10 11 -22 20 -27 20 -5 0 -16 7 -24 15 -18 18
-51 19 -79 3z m-41 -120 c-142 -148 -440 -551 -524 -710 -14 -26 -51 -92 -82
-146 -32 -55 -58 -107 -58 -115 0 -17 -41 -90 -70 -127 -27 -33 10 47 108 233
40 76 69 143 66 149 -4 6 -3 8 3 5 5 -4 32 28 58 71 69 109 195 289 289 412
74 96 241 280 255 280 3 0 -17 -24 -45 -52z m-821 -688 c-3 -12 -8 -19 -11
-16 -5 6 5 36 12 36 2 0 2 -9 -1 -20z m737 -20 c0 -5 -5 -10 -11 -10 -5 0 -7
5 -4 10 3 6 8 10 11 10 2 0 4 -4 4 -10z m281 -52 c-54 -69 -140 -205 -197
-311 -25 -45 -40 -64 -45 -56 -4 7 -4 20 0 28 5 9 29 59 54 111 26 52 59 113
74 136 38 55 125 151 117 128 -6 -16 -4 -16 17 4 37 35 33 27 -20 -40z m-1000
-25 c-8 -15 -10 -15 -11 -2 0 17 10 32 18 25 2 -3 -1 -13 -7 -23z m-51 7 c0
-5 -5 -10 -11 -10 -5 0 -7 5 -4 10 3 6 8 10 11 10 2 0 4 -4 4 -10z m730 -40
c-5 -22 -8 -27 -9 -13 -1 21 9 56 14 51 2 -2 0 -19 -5 -38z m-690 -4 c0 -23
-11 -46 -20 -41 -11 7 -23 -32 -15 -45 3 -5 3 -10 -2 -10 -4 0 -13 -11 -20
-25 -6 -14 -7 -23 -2 -19 11 7 11 -7 0 -25 -7 -10 -11 -6 -15 17 -7 30 26 122
44 122 5 0 6 9 3 20 -4 14 0 20 11 20 9 0 16 -6 16 -14z m-90 -93 c-15 -49
-37 -108 -49 -133 -11 -25 -21 -54 -21 -65 0 -11 -9 -38 -19 -60 l-19 -40 -1
32 c-1 36 73 246 89 251 5 2 10 14 10 27 0 31 17 75 29 75 5 0 -4 -39 -19 -87z
m774 12 c5 -14 -22 -51 -31 -42 -6 7 8 57 17 57 4 0 10 -7 14 -15z m-37 -77
c-3 -8 -6 -5 -6 6 -1 11 2 17 5 13 3 -3 4 -12 1 -19z m-734 -48 c3 -13 1 -18
-6 -13 -6 4 -8 -2 -4 -16 5 -20 -19 -104 -53 -186 -7 -16 -14 -37 -15 -45 -1
-8 -16 -62 -34 -120 -18 -58 -34 -113 -37 -122 -8 -26 -24 -22 -24 5 l0 22
-20 -25 -20 -25 1 30 c1 47 63 268 77 273 19 6 15 -31 -12 -101 -28 -75 -42
-147 -28 -147 9 0 18 29 28 95 3 17 17 54 31 83 14 29 27 69 28 87 4 41 9 59
42 153 27 74 37 86 46 52z m777 -4 c0 -20 -11 -46 -19 -46 -4 0 -6 14 -3 30 4
30 22 43 22 16z m-60 -136 c-18 -81 -47 -166 -55 -159 -7 8 18 114 30 129 7 8
16 35 20 60 7 45 14 64 20 58 2 -2 -4 -42 -15 -88z m-594 -27 c-8 -15 -15 -25
-16 -21 0 12 23 58 27 54 3 -2 -2 -17 -11 -33z m-121 -164 c-13 -30 -22 -43
-19 -30 10 39 35 94 40 88 3 -2 -7 -29 -21 -58z m669 -23 c-7 -28 -24 -36 -24
-11 0 15 22 46 28 40 2 -1 0 -14 -4 -29z m-888 -258 l-15 -43 -1 43 c0 24 6
53 12 65 l13 22 3 -22 c2 -12 -4 -41 -12 -65z m48 0 c-4 -40 -13 -89 -21 -108
-12 -33 -13 -29 -8 53 4 73 18 127 33 127 2 0 0 -33 -4 -72z"/>
<path d="M1523 2298 c-11 -13 -24 -30 -28 -38 -8 -16 -6 -14 34 33 14 15 22
27 19 27 -2 0 -14 -10 -25 -22z"/>
<path d="M3035 3136 c-173 -55 -387 -242 -565 -495 -35 -49 -66 -88 -68 -86
-7 7 139 297 200 398 64 105 66 121 21 157 -18 14 -41 20 -74 20 -45 0 -50 -3
-101 -57 -29 -32 -75 -80 -101 -108 -38 -38 -47 -53 -39 -65 10 -16 35 -18 65
-5 18 7 18 5 -1 -32 -38 -74 -94 -218 -94 -240 0 -12 -7 -24 -14 -27 -8 -3
-14 -10 -14 -15 0 -6 -33 -90 -73 -188 -41 -98 -100 -259 -131 -358 -31 -99
-61 -188 -66 -197 -6 -10 -10 -26 -11 -35 0 -10 -6 -2 -14 17 l-12 35 -8 -37
c-4 -21 -5 -57 -2 -80 3 -27 -5 -78 -20 -138 -25 -94 -34 -248 -21 -328 6 -31
48 -82 68 -82 6 0 21 18 35 40 18 29 25 53 25 91 0 49 25 162 57 262 15 47 15
47 60 47 61 0 207 50 323 111 137 72 275 179 433 336 158 156 253 288 336 463
56 120 64 145 87 292 15 92 15 116 5 164 -28 126 -147 184 -286 140z m-24 -66
c-61 -29 -165 -104 -205 -149 -11 -12 -23 -21 -28 -21 -14 0 25 49 40 50 6 0
12 4 12 9 0 14 118 97 171 120 71 32 80 24 10 -9z m198 -17 c27 -97 5 -257
-56 -398 -19 -44 -43 -100 -52 -125 -39 -101 -162 -262 -323 -424 -104 -104
-123 -126 -95 -110 6 4 3 -3 -8 -15 -25 -29 -203 -156 -262 -188 -50 -26 -227
-98 -261 -106 -42 -10 -15 5 52 28 62 22 127 55 171 89 14 10 17 18 10 25 -7
7 -39 -2 -104 -30 -52 -22 -106 -43 -121 -46 l-28 -5 45 113 c24 63 81 188
125 279 44 91 81 171 81 178 0 6 4 12 8 12 5 0 20 21 36 48 15 26 66 106 114
178 49 73 86 135 83 138 -2 3 -1 4 3 1 8 -6 33 14 33 27 0 5 -6 6 -12 2 -16
-8 10 17 132 126 52 46 103 92 112 101 60 60 214 139 270 139 34 0 38 -3 47
-37z m-279 7 c-14 -11 -29 -20 -35 -20 -5 0 4 9 20 20 38 25 48 25 15 0z
m-105 -72 c-22 -18 -83 -73 -135 -122 -62 -59 -74 -68 -35 -27 64 68 191 181
203 181 3 0 -11 -14 -33 -32z m-147 -189 c-74 -85 -115 -137 -139 -176 -12
-19 -24 -32 -27 -28 -3 3 4 18 15 33 11 15 24 38 28 51 7 24 154 181 169 181
4 0 -16 -27 -46 -61z m554 -111 c-8 -8 -9 -4 -5 13 4 13 8 18 11 10 2 -7 -1
-18 -6 -23z m-22 -45 c0 -5 -5 -15 -10 -23 -8 -12 -10 -11 -10 8 0 12 5 22 10
22 6 0 10 -3 10 -7z m-40 -74 c-6 -11 -10 -32 -9 -47 4 -36 -17 -72 -41 -72
-11 0 -20 2 -20 5 0 8 72 135 76 135 3 0 0 -9 -6 -21z m-701 -46 c-12 -21 -38
-62 -57 -92 -42 -68 -194 -373 -212 -425 -10 -32 -14 -36 -22 -22 -7 12 6 48
51 140 33 67 62 139 64 158 2 20 21 67 41 104 42 77 63 104 47 62 -6 -16 -9
-28 -6 -28 6 0 65 90 65 100 0 8 39 40 48 40 2 0 -7 -17 -19 -37z m-173 -10
c-11 -11 -17 4 -9 23 7 18 8 18 11 1 2 -10 1 -21 -2 -24z m-25 -131 c-17 -39
-31 -73 -31 -76 0 -22 -162 -408 -168 -401 -6 6 19 89 38 125 10 19 25 58 33
85 8 28 27 76 41 108 14 32 26 63 26 71 0 16 82 168 87 162 3 -2 -9 -36 -26
-74z m820 15 c-10 -9 -11 -8 -5 6 3 10 9 15 12 12 3 -3 0 -11 -7 -18z m-26
-41 c-8 -13 -13 -30 -10 -38 4 -10 -8 -27 -32 -46 -21 -18 -46 -38 -55 -47
-22 -19 -23 -7 -2 23 9 13 22 21 30 18 14 -5 58 47 47 57 -6 6 23 57 32 57 3
0 -1 -11 -10 -24z m-175 -233 c-21 -28 -157 -153 -166 -153 -11 0 23 40 44 51
13 7 30 28 37 46 8 18 21 33 29 33 8 0 26 11 40 25 33 33 43 32 16 -2z m-275
-238 c-16 -13 -34 -24 -40 -25 -5 0 4 11 20 25 17 13 35 24 40 25 6 0 -3 -11
-20 -25z m-70 -51 c-28 -21 -55 -36 -55 -29 0 6 62 45 70 45 3 -1 -4 -8 -15
-16z m-449 -41 c-18 -33 -21 -26 -6 13 6 15 13 24 16 21 3 -3 -1 -18 -10 -34z
m259 17 c-3 -5 -16 -15 -28 -21 -19 -9 -19 -8 3 10 28 23 34 26 25 11z m125
-15 c0 -2 -10 -9 -22 -15 -22 -11 -22 -10 -4 4 21 17 26 19 26 11z m-55 -35
c-3 -5 -11 -10 -16 -10 -6 0 -7 5 -4 10 3 6 11 10 16 10 6 0 7 -4 4 -10z m-83
-37 c-29 -14 -56 -22 -59 -19 -3 3 3 8 13 12 10 3 33 12 49 19 17 8 35 14 40
14 6 -1 -14 -12 -43 -26z"/>
<path d="M1183 2285 c-3 -9 -3 -18 -1 -21 3 -3 8 4 11 16 6 23 -1 27 -10 5z"/>
<path d="M1161 2184 c0 -11 3 -14 6 -6 3 7 2 16 -1 19 -3 4 -6 -2 -5 -13z"/>
<path d="M1142 2100 c0 -14 2 -19 5 -12 2 6 2 18 0 25 -3 6 -5 1 -5 -13z"/>
<path d="M1131 2054 c0 -11 3 -14 6 -6 3 7 2 16 -1 19 -3 4 -6 -2 -5 -13z"/>
<path d="M1092 1840 c0 -14 2 -19 5 -12 2 6 2 18 0 25 -3 6 -5 1 -5 -13z"/>
<path d="M1082 1790 c0 -14 2 -19 5 -12 2 6 2 18 0 25 -3 6 -5 1 -5 -13z"/>
<path d="M1070 1743 c-1 -5 -5 -27 -9 -51 -5 -24 -5 -40 -1 -35 10 10 24 93
16 93 -3 0 -6 -3 -6 -7z"/>
<path d="M182 1450 c0 -14 2 -19 5 -12 2 6 2 18 0 25 -3 6 -5 1 -5 -13z"/>
<path d="M712 1038 c-19 -19 -17 -460 2 -523 20 -65 76 -121 140 -140 75 -22
1548 -22 1623 0 69 21 127 83 142 154 16 73 15 493 -1 509 -15 15 -148 16
-198 2 -41 -11 -94 -61 -109 -103 -6 -16 -11 -55 -11 -88 l0 -59 -635 0 -635
0 0 59 c0 33 -5 72 -11 88 -15 42 -68 92 -109 103 -50 14 -183 13 -198 -2z"/>
<path d="M937 273 c-4 -3 -7 -30 -7 -60 l0 -53 38 0 c50 0 72 24 72 78 l0 42
-48 0 c-27 0 -52 -3 -55 -7z"/>
<path d="M2290 237 c0 -55 24 -80 72 -75 l33 3 0 55 0 55 -52 3 -53 3 0 -44z"/>
</g>
</svg>
